<svg xmlns="http://www.w3.org/2000/svg" width="1200" height="820" viewBox="0 0 1200 820" role="img" aria-label="Cisco Networking Academy CCNA course completion credential"><defs><linearGradient id="bg" x1="0" x2="1" y1="0" y2="1"><stop offset="0" stop-color="#ffffff"/><stop offset="1" stop-color="#f8fafc"/></linearGradient></defs><rect width="1200" height="820" fill="url(#bg)"/><rect x="30" y="30" width="1140" height="760" fill="none" stroke="#dbe3ef" stroke-width="5"/><path d="M90 120c205-60 385-62 560-18 185 47 340 38 465-26" fill="none" stroke="#e5edf7" stroke-width="3"/><text x="100" y="120" font-family="Arial, sans-serif" font-size="30" font-weight="700" fill="#00a0df">CISCO</text><text x="222" y="120" font-family="Arial, sans-serif" font-size="31" fill="#00a0df">Networking</text><text x="222" y="157" font-family="Arial, sans-serif" font-size="31" fill="#111827">Academy</text><text x="100" y="245" font-family="Arial, sans-serif" font-size="55" font-weight="700" fill="#173763">Certificate of Course Completion</text><text x="100" y="365" font-family="Arial, sans-serif" font-size="40" font-style="italic" fill="#00a0df">Yousof W. Biadsy</text><text x="100" y="430" font-family="Arial, sans-serif" font-size="29" font-style="italic" fill="#374151">has successfully achieved student level credential for completing the CCNA:</text><text x="100" y="468" font-family="Arial, sans-serif" font-size="29" font-style="italic" fill="#374151">Introduction to Networks course.</text><text x="100" y="548" font-family="Arial, sans-serif" font-size="27" font-style="italic" fill="#374151">Skills covered: switching, routing, IPv4 / IPv6 addressing, OSI model,</text><text x="100" y="585" font-family="Arial, sans-serif" font-size="27" font-style="italic" fill="#374151">network security best practices, and troubleshooting connectivity.</text><rect x="105" y="660" width="118" height="88" rx="10" fill="#00a0df" opacity=".18"/><text x="164" y="704" font-family="Arial, sans-serif" font-size="18" font-weight="700" text-anchor="middle" fill="#0067b8">Verified</text><text x="164" y="730" font-family="Arial, sans-serif" font-size="15" text-anchor="middle" fill="#0067b8">CCNA</text><path d="M640 685c60-42 92-20 135-65" fill="none" stroke="#111827" stroke-width="5" stroke-linecap="round"/><line x1="620" y1="705" x2="950" y2="705" stroke="#475569" stroke-width="2"/><text x="640" y="740" font-family="Arial, sans-serif" font-size="22" fill="#374151">Lynn Bloomer</text><text x="640" y="768" font-family="Arial, sans-serif" font-size="20" fill="#374151">Director, Cisco Networking Academy</text><text x="1020" y="735" font-family="Arial, sans-serif" font-size="23" font-weight="700" text-anchor="middle" fill="#00a0df">Issued on: May 19, 2024</text></svg>