<svg xmlns="http://www.w3.org/2000/svg" width="1200" height="820" viewBox="0 0 1200 820" role="img" aria-label="Cisco Networking Academy CCNAv7 Introduction to Networks certificate"><defs><linearGradient id="bg" x1="0" x2="1" y1="0" y2="1"><stop offset="0" stop-color="#ffffff"/><stop offset="1" stop-color="#f8fafc"/></linearGradient><filter id="s"><feDropShadow dx="0" dy="14" stdDeviation="18" flood-opacity=".14"/></filter></defs><rect width="1200" height="820" fill="url(#bg)"/><rect x="30" y="30" width="1140" height="760" fill="none" stroke="#dbe3ef" stroke-width="5"/><path d="M90 135c170-60 310-70 480-30 180 42 360 38 540-20" fill="none" stroke="#e5edf7" stroke-width="3"/><text x="82" y="105" font-family="Arial, sans-serif" font-size="27" font-weight="700" fill="#111827">Cisco</text><text x="82" y="135" font-family="Arial, sans-serif" font-size="27" font-weight="700" fill="#111827">Networking</text><text x="82" y="165" font-family="Arial, sans-serif" font-size="27" font-weight="700" fill="#111827">Academy</text><text x="600" y="225" font-family="Arial, sans-serif" font-size="30" text-anchor="middle" fill="#374151">This certificate is awarded to</text><text x="600" y="315" font-family="Arial, sans-serif" font-size="62" font-weight="700" text-anchor="middle" fill="#0067b8">Yousof W. Biadsy</text><text x="600" y="380" font-family="Arial, sans-serif" font-size="31" text-anchor="middle" fill="#374151">for successfully completing</text><text x="600" y="455" font-family="Arial, sans-serif" font-size="43" font-weight="700" text-anchor="middle" fill="#0067b8">CCNAv7: Introduction to Networks</text><text x="600" y="525" font-family="Arial, sans-serif" font-size="30" text-anchor="middle" fill="#374151">through the Cisco Networking Academy program.</text><line x1="90" y1="625" x2="1110" y2="625" stroke="#d1d5db" stroke-width="2"/><path d="M105 695c55-38 82-24 116-66" fill="none" stroke="#111827" stroke-width="5" stroke-linecap="round"/><text x="92" y="735" font-family="Arial, sans-serif" font-size="23" fill="#374151">Lynn Bloomer</text><text x="92" y="764" font-family="Arial, sans-serif" font-size="21" fill="#374151">Director, Cisco Networking Academy</text><text x="1020" y="720" font-family="Arial, sans-serif" font-size="25" font-weight="700" text-anchor="middle" fill="#374151">19 May 2024</text><text x="1020" y="752" font-family="Arial, sans-serif" font-size="21" text-anchor="middle" fill="#374151">Completion Date</text></svg>